<mxfile host="app.diagrams.net" modified="2024-01-15T14:31:29.171Z" agent="Mozilla/5.0 (Windows NT 10.0; Win64; x64) AppleWebKit/537.36 (KHTML, like Gecko) Chrome/120.0.0.0 Safari/537.36" version="22.1.18" etag="7l5Cnpbm02_xUU5O55Vf" type="github">
  <diagram name="Page-1" id="aMmcdnnf2w5doSedZ9XC">
    <mxGraphModel>
      <root>
        <mxCell id="0" />
        <mxCell id="1" parent="0" />
      </root>
    </mxGraphModel>
  </diagram>
</mxfile>
